<svg width="15" height="11" viewBox="0 0 15 11" fill="none" xmlns="http://www.w3.org/2000/svg">
<path d="M10.625 3.75L13.8831 1.46875C13.93 1.43591 13.9849 1.41656 14.042 1.41281C14.0991 1.40907 14.1561 1.42106 14.2069 1.4475C14.2576 1.47393 14.3001 1.51379 14.3298 1.56272C14.3594 1.61165 14.3751 1.66779 14.375 1.725V9.275C14.3751 9.33221 14.3594 9.38835 14.3298 9.43728C14.3001 9.48621 14.2576 9.52607 14.2069 9.5525C14.1561 9.57894 14.0991 9.59093 14.042 9.58719C13.9849 9.58344 13.93 9.56409 13.8831 9.53125L10.625 7.25V9.875C10.625 10.0408 10.5592 10.1997 10.4419 10.3169C10.3247 10.4342 10.1658 10.5 10 10.5H1.25C1.08424 10.5 0.925268 10.4342 0.808058 10.3169C0.690848 10.1997 0.625 10.0408 0.625 9.875V1.125C0.625 0.95924 0.690848 0.800269 0.808058 0.683058C0.925268 0.565848 1.08424 0.5 1.25 0.5H10C10.1658 0.5 10.3247 0.565848 10.4419 0.683058C10.5592 0.800269 10.625 0.95924 10.625 1.125V3.75ZM10.625 5.72438L13.125 7.47438V3.525L10.625 5.275V5.72375V5.72438ZM1.875 1.75V9.25H9.375V1.75H1.875ZM3.125 3H4.375V4.25H3.125V3Z" fill="#265B55"/>
</svg>
