<svg width="61" height="61" viewBox="0 0 61 61" fill="none" xmlns="http://www.w3.org/2000/svg">
<path d="M41.5826 38.2545C41.3923 37.7264 40.81 37.4526 40.2821 37.6429C39.754 37.8332 39.4802 38.4156 39.6705 38.9435C39.6752 38.9565 39.6802 38.9693 39.6854 38.9821C40.6122 41.4009 40.6793 43.2505 39.8683 44.0635C38.8846 45.0452 36.4343 44.7383 33.3124 43.2444C29.1327 41.0741 25.3335 38.239 22.0633 34.85C14.1028 26.8885 10.8182 19.0764 12.8497 17.0449C13.498 16.533 14.3406 16.3363 15.1486 16.5083C15.7083 16.5495 16.1954 16.129 16.2366 15.5693C16.2764 15.0282 15.8842 14.5514 15.3457 14.4859C13.9327 14.2359 12.483 14.6479 11.4127 15.6038C7.68913 19.3264 13.3813 29.0369 20.6263 36.2829C24.0588 39.835 28.0474 42.8039 32.4353 45.0726C33.2299 45.4531 34.0488 45.7807 34.8866 46.0533L27.666 48.7912C18.0241 45.1255 11.0831 36.5776 9.47471 26.3885C9.38769 25.834 8.86762 25.4549 8.31312 25.5419C7.75861 25.629 7.37954 26.149 7.46656 26.7035C7.62612 27.7198 7.83953 28.7361 8.10072 29.73C10.4409 38.5968 16.6047 45.9629 24.92 49.8298L13.0357 54.3268C12.9812 54.2358 12.9126 54.1543 12.8325 54.0849C9.81211 51.66 7.91702 48.1037 7.58852 44.2444L7.11697 38.5339C7.07987 37.9807 6.60121 37.5623 6.04785 37.5994C6.0373 37.6001 6.02676 37.6009 6.01634 37.602C5.45689 37.6465 5.03933 38.1362 5.08379 38.6957C5.08392 38.698 5.08417 38.7004 5.08442 38.7027L5.5641 44.411C5.92132 48.5362 7.84563 52.3676 10.9412 55.1175L2.46346 58.3268L3.98787 52.0707C4.12087 51.5251 3.78652 50.975 3.24091 50.842C2.6953 50.709 2.14524 51.0434 2.01224 51.589L0.029494 59.7191C-0.104146 60.2642 0.229445 60.8145 0.774674 60.9481C0.974626 60.9971 1.18461 60.9841 1.37707 60.9112L38.9791 46.6834C39.0389 46.6542 39.0954 46.6188 39.1478 46.5777C39.9616 46.4527 40.716 46.0765 41.3053 45.5015C42.3123 44.4944 43.1792 42.4181 41.5826 38.2545Z" fill="url(#paint0_linear)"/>
<path d="M51.1732 35.6335C45.6794 33.5768 39.7414 33.0002 33.9545 33.9617L30.3234 34.5715C29.7722 34.6775 29.4113 35.2101 29.5172 35.7613C29.6196 36.2938 30.122 36.6522 30.6588 36.5756L34.2889 35.9709C39.7237 35.0673 45.3006 35.6093 50.4598 37.5421C50.5743 37.5826 50.6951 37.6029 50.8165 37.602C51.3777 37.6029 51.8335 37.1488 51.8344 36.5874C51.8352 36.1625 51.5715 35.782 51.1732 35.6335Z" fill="url(#paint1_linear)"/>
<path d="M54.786 19.8885C54.5447 19.3816 53.9382 19.1664 53.4313 19.4078L32.0897 29.5705C31.5829 29.8117 31.3676 30.418 31.6088 30.9249C31.6088 30.925 31.609 30.9252 31.609 30.9252C31.8502 31.4319 32.4565 31.6472 32.9634 31.406C32.9635 31.406 32.9635 31.4059 32.9637 31.4059L54.3053 21.2431C54.8122 21.0018 55.0274 20.3953 54.786 19.8885Z" fill="url(#paint2_linear)"/>
<path d="M24.6821 6.89745C24.5703 6.3474 24.0338 5.99208 23.4838 6.10387C22.9337 6.21566 22.5784 6.75213 22.6902 7.30218C22.6926 7.31438 22.6954 7.32645 22.6983 7.33851C23.9847 13.0854 23.4546 19.09 21.181 24.5226L19.7034 28.0684C19.4898 28.585 19.7336 29.1772 20.2491 29.3936C20.3726 29.4456 20.5053 29.4721 20.6394 29.4719C21.0495 29.4719 21.4195 29.2254 21.5774 28.8469L23.0561 25.3052C25.4919 19.4859 26.0601 13.0536 24.6821 6.89745Z" fill="url(#paint3_linear)"/>
<path d="M55.8979 36.5858C54.214 36.5858 52.8491 37.9507 52.8491 39.6346C52.8491 41.3184 54.214 42.6834 55.8979 42.6834C57.5817 42.6834 58.9467 41.3184 58.9467 39.6346C58.9467 37.9507 57.5817 36.5858 55.8979 36.5858ZM55.8979 40.6508C55.3366 40.6508 54.8816 40.1958 54.8816 39.6346C54.8816 39.0733 55.3366 38.6183 55.8979 38.6183C56.4591 38.6183 56.9141 39.0733 56.9141 39.6346C56.9141 40.1958 56.4591 40.6508 55.8979 40.6508Z" fill="url(#paint4_linear)"/>
<path d="M31.5074 8.13019C29.8235 8.13019 28.4586 9.49517 28.4586 11.179C28.4586 12.8628 29.8235 14.2278 31.5074 14.2278C33.1912 14.2278 34.5562 12.8628 34.5562 11.179C34.5562 9.49517 33.1912 8.13019 31.5074 8.13019ZM31.5074 12.1953C30.9461 12.1953 30.4911 11.7402 30.4911 11.179C30.4911 10.6178 30.9461 10.1627 31.5074 10.1627C32.0686 10.1627 32.5236 10.6178 32.5236 11.179C32.5236 11.7402 32.0686 12.1953 31.5074 12.1953Z" fill="url(#paint5_linear)"/>
<path d="M22.3609 4.06508C23.4835 4.06508 24.3935 3.15508 24.3935 2.03254C24.3935 0.91 23.4835 0 22.3609 0C21.2384 0 20.3284 0.91 20.3284 2.03254C20.3284 3.15508 21.2384 4.06508 22.3609 4.06508Z" fill="url(#paint6_linear)"/>
<path d="M50.8165 5.08136C50.2553 5.08136 49.8002 5.5364 49.8002 6.09763V7.1139C49.8002 7.67514 50.2553 8.13017 50.8165 8.13017C51.3777 8.13017 51.8328 7.67514 51.8328 7.1139V6.09763C51.8328 5.5364 51.3777 5.08136 50.8165 5.08136Z" fill="url(#paint7_linear)"/>
<path d="M50.8165 0C50.2553 0 49.8002 0.455035 49.8002 1.01627V2.03254C49.8002 2.59378 50.2553 3.04881 50.8165 3.04881C51.3777 3.04881 51.8328 2.59378 51.8328 2.03254V1.01627C51.8328 0.455035 51.3777 0 50.8165 0Z" fill="url(#paint8_linear)"/>
<path d="M53.8653 3.04883H52.8491C52.2878 3.04883 51.8328 3.50386 51.8328 4.0651C51.8328 4.62633 52.2878 5.08137 52.8491 5.08137H53.8653C54.4266 5.08137 54.8816 4.62633 54.8816 4.0651C54.8816 3.50386 54.4266 3.04883 53.8653 3.04883Z" fill="url(#paint9_linear)"/>
<path d="M48.784 3.04883H47.7677C47.2065 3.04883 46.7514 3.50386 46.7514 4.0651C46.7514 4.62633 47.2065 5.08137 47.7677 5.08137H48.784C49.3452 5.08137 49.8002 4.62633 49.8002 4.0651C49.8002 3.50386 49.3452 3.04883 48.784 3.04883Z" fill="url(#paint10_linear)"/>
<path d="M43.7026 11.1576H38.5999C38.0387 11.1576 37.5836 11.6126 37.5836 12.1739V17.2766C37.5836 17.8378 38.0387 18.2928 38.5999 18.2928H43.7026C44.2638 18.2928 44.7189 17.8378 44.7189 17.2766V12.1739C44.7189 11.6126 44.2638 11.1576 43.7026 11.1576ZM42.6863 16.2603H39.6162V13.1901H42.6863V16.2603Z" fill="url(#paint11_linear)"/>
<path d="M36.2992 19.644C35.9261 19.2458 35.3052 19.2132 34.8926 19.5703L24.7299 28.7168C24.3129 29.0923 24.2793 29.7347 24.6547 30.1517C25.0302 30.5687 25.6726 30.6023 26.0896 30.2269L36.2523 21.0805C36.662 20.6967 36.683 20.0537 36.2992 19.644Z" fill="url(#paint12_linear)"/>
<path d="M54.8816 23.3742C54.3204 23.3742 53.8653 23.8292 53.8653 24.3905V25.4067C53.8653 25.968 54.3204 26.423 54.8816 26.423C55.4428 26.423 55.8979 25.968 55.8979 25.4067V24.3905C55.8979 23.8292 55.4428 23.3742 54.8816 23.3742Z" fill="url(#paint13_linear)"/>
<path d="M59.1936 23.1994L58.4751 22.4809C58.0714 22.0909 57.4281 22.1021 57.0381 22.5058C56.6578 22.8996 56.6578 23.524 57.0381 23.9179L57.7566 24.6364C58.1603 25.0264 58.8036 25.0152 59.1936 24.6115C59.5741 24.2176 59.5741 23.5932 59.1936 23.1994Z" fill="url(#paint14_linear)"/>
<path d="M59.963 19.3091H58.9467C58.3855 19.3091 57.9304 19.7642 57.9304 20.3254C57.9304 20.8866 58.3855 21.3417 58.9467 21.3417H59.963C60.5242 21.3417 60.9792 20.8866 60.9792 20.3254C60.9792 19.7642 60.5242 19.3091 59.963 19.3091Z" fill="url(#paint15_linear)"/>
<path d="M59.1687 16.0144C58.7749 15.634 58.1505 15.634 57.7566 16.0144L57.0381 16.7329C56.6412 17.1299 56.6414 17.7733 57.0384 18.1702C57.2289 18.3606 57.4873 18.4677 57.7566 18.4677C58.0262 18.4677 58.2846 18.3604 58.4751 18.1699L59.1936 17.4514C59.5836 17.0477 59.5724 16.4042 59.1687 16.0144Z" fill="url(#paint16_linear)"/>
<path d="M54.8816 14.2278C54.3204 14.2278 53.8653 14.6828 53.8653 15.2441V16.2603C53.8653 16.8216 54.3204 17.2766 54.8816 17.2766C55.4428 17.2766 55.8979 16.8216 55.8979 16.2603V15.2441C55.8979 14.6828 55.4428 14.2278 54.8816 14.2278Z" fill="url(#paint17_linear)"/>
<path d="M52.725 16.7329L52.0065 16.0144C51.6028 15.6246 50.9595 15.6356 50.5695 16.0393C50.1892 16.4331 50.1892 17.0575 50.5695 17.4514L51.288 18.1699C51.6917 18.5599 52.3351 18.5487 52.725 18.145C53.1055 17.7511 53.1055 17.1267 52.725 16.7329Z" fill="url(#paint18_linear)"/>
<path d="M12.1484 4.39436C12.0287 4.02672 11.7108 3.75894 11.3283 3.70329L8.34552 3.26935L7.01522 0.567084C6.71873 0.0636485 6.07022 -0.104163 5.56678 0.192334C5.41206 0.283417 5.28312 0.412356 5.19203 0.567084L3.85564 3.26935L0.872883 3.70329C0.317364 3.78345 -0.0679298 4.29883 0.0122286 4.85435C0.044114 5.07551 0.148028 5.27991 0.307836 5.43604L2.46538 7.53972L1.95724 10.5103C1.85968 11.063 2.22859 11.5902 2.78131 11.6878C3.00388 11.727 3.23304 11.6911 3.43287 11.5855L6.10058 10.179L8.76829 11.5814C9.26512 11.8426 9.87958 11.6517 10.1408 11.1548C10.2448 10.9571 10.2806 10.7306 10.2429 10.5103L9.73476 7.53972L11.8933 5.43604C12.1696 5.16558 12.2685 4.76187 12.1484 4.39436ZM7.92987 6.45739C7.69054 6.6905 7.58116 7.02637 7.63718 7.35577L7.88922 8.82428L6.57315 8.13017C6.27728 7.97481 5.92388 7.97481 5.62801 8.13017L4.30686 8.82327L4.5589 7.35475C4.61594 7.02663 4.50846 6.69126 4.27129 6.45739L3.20319 5.41774L4.6778 5.20331C5.00885 5.15529 5.29506 4.94734 5.44305 4.64741L6.10058 3.31305L6.75912 4.64741C6.90699 4.94708 7.19269 5.15491 7.52336 5.20331L8.99695 5.41774L7.92987 6.45739Z" fill="url(#paint19_linear)"/>
<path d="M57.5462 50.9406H57.5421L57.1234 50.3125C54.7757 46.8017 51.084 44.4145 46.9191 43.7139C46.3634 43.6346 45.8487 44.0208 45.7694 44.5764C45.6928 45.1133 46.0512 45.6157 46.5837 45.718C49.5878 46.2279 52.3255 47.7541 54.3388 50.0412C52.6461 50.3457 51.1657 51.3623 50.2738 52.8329C49.1792 54.7931 49.8811 57.2694 51.8414 58.3639C53.8016 59.4584 56.2779 58.7566 57.3724 56.7963C57.7905 55.9893 58.0162 55.0963 58.032 54.1875C59.1133 55.7581 59.1998 57.809 58.2545 59.465C57.9682 59.9478 58.1274 60.5713 58.6101 60.8576C59.0928 61.1439 59.7163 60.9847 60.0027 60.502C60.0118 60.4865 60.0206 60.4709 60.0289 60.4549C61.8897 57.1312 60.7937 52.9313 57.5462 50.9406ZM55.6 55.8044C55.0576 56.7873 53.8212 57.1443 52.8385 56.6018C51.8557 56.0594 51.4986 54.823 52.0411 53.8402C52.0441 53.8348 52.0472 53.8292 52.0502 53.8237C52.6499 52.8418 53.6615 52.1835 54.8023 52.0331C54.979 52.0282 55.1539 52.0689 55.3104 52.1509C56.1681 52.6296 56.2139 54.7048 55.6 55.8044Z" fill="url(#paint20_linear)"/>
<defs>
<linearGradient id="paint0_linear" x1="43.4871" y1="5.79152" x2="0.45628" y2="7.98113" gradientUnits="userSpaceOnUse">
<stop stop-color="#009EBE"/>
<stop offset="1" stop-color="#049C69"/>
</linearGradient>
<linearGradient id="paint1_linear" x1="52.3721" y1="32.7512" x2="31.6055" y2="39.0744" gradientUnits="userSpaceOnUse">
<stop stop-color="#009EBE"/>
<stop offset="1" stop-color="#049C69"/>
</linearGradient>
<linearGradient id="paint2_linear" x1="55.4478" y1="17.0502" x2="31.9683" y2="19.5611" gradientUnits="userSpaceOnUse">
<stop stop-color="#009EBE"/>
<stop offset="1" stop-color="#049C69"/>
</linearGradient>
<linearGradient id="paint3_linear" x1="25.5568" y1="1.75209" x2="19.6742" y2="1.83336" gradientUnits="userSpaceOnUse">
<stop stop-color="#009EBE"/>
<stop offset="1" stop-color="#049C69"/>
</linearGradient>
<linearGradient id="paint4_linear" x1="59.0935" y1="35.4566" x2="52.9178" y2="35.8011" gradientUnits="userSpaceOnUse">
<stop stop-color="#009EBE"/>
<stop offset="1" stop-color="#049C69"/>
</linearGradient>
<linearGradient id="paint5_linear" x1="34.703" y1="7.001" x2="28.5273" y2="7.34557" gradientUnits="userSpaceOnUse">
<stop stop-color="#009EBE"/>
<stop offset="1" stop-color="#049C69"/>
</linearGradient>
<linearGradient id="paint6_linear" x1="24.4913" y1="-0.752795" x2="20.3742" y2="-0.523077" gradientUnits="userSpaceOnUse">
<stop stop-color="#009EBE"/>
<stop offset="1" stop-color="#049C69"/>
</linearGradient>
<linearGradient id="paint7_linear" x1="51.8817" y1="4.51676" x2="49.8196" y2="4.59347" gradientUnits="userSpaceOnUse">
<stop stop-color="#009EBE"/>
<stop offset="1" stop-color="#049C69"/>
</linearGradient>
<linearGradient id="paint8_linear" x1="51.8817" y1="-0.564596" x2="49.8196" y2="-0.487891" gradientUnits="userSpaceOnUse">
<stop stop-color="#009EBE"/>
<stop offset="1" stop-color="#049C69"/>
</linearGradient>
<linearGradient id="paint9_linear" x1="54.955" y1="2.67243" x2="51.8791" y2="2.92986" gradientUnits="userSpaceOnUse">
<stop stop-color="#009EBE"/>
<stop offset="1" stop-color="#049C69"/>
</linearGradient>
<linearGradient id="paint10_linear" x1="49.8736" y1="2.67243" x2="46.7977" y2="2.92986" gradientUnits="userSpaceOnUse">
<stop stop-color="#009EBE"/>
<stop offset="1" stop-color="#049C69"/>
</linearGradient>
<linearGradient id="paint11_linear" x1="44.8907" y1="9.83625" x2="37.6641" y2="10.2395" gradientUnits="userSpaceOnUse">
<stop stop-color="#009EBE"/>
<stop offset="1" stop-color="#049C69"/>
</linearGradient>
<linearGradient id="paint12_linear" x1="36.8671" y1="17.2548" x2="24.5383" y2="18.0053" gradientUnits="userSpaceOnUse">
<stop stop-color="#009EBE"/>
<stop offset="1" stop-color="#049C69"/>
</linearGradient>
<linearGradient id="paint13_linear" x1="55.9468" y1="22.8096" x2="53.8847" y2="22.8863" gradientUnits="userSpaceOnUse">
<stop stop-color="#009EBE"/>
<stop offset="1" stop-color="#049C69"/>
</linearGradient>
<linearGradient id="paint14_linear" x1="59.5446" y1="21.6907" x2="56.7836" y2="21.8448" gradientUnits="userSpaceOnUse">
<stop stop-color="#009EBE"/>
<stop offset="1" stop-color="#049C69"/>
</linearGradient>
<linearGradient id="paint15_linear" x1="61.0526" y1="18.9327" x2="57.9767" y2="19.1902" gradientUnits="userSpaceOnUse">
<stop stop-color="#009EBE"/>
<stop offset="1" stop-color="#049C69"/>
</linearGradient>
<linearGradient id="paint16_linear" x1="59.5449" y1="15.222" x2="56.7714" y2="15.3767" gradientUnits="userSpaceOnUse">
<stop stop-color="#009EBE"/>
<stop offset="1" stop-color="#049C69"/>
</linearGradient>
<linearGradient id="paint17_linear" x1="55.9468" y1="13.6632" x2="53.8847" y2="13.7399" gradientUnits="userSpaceOnUse">
<stop stop-color="#009EBE"/>
<stop offset="1" stop-color="#049C69"/>
</linearGradient>
<linearGradient id="paint18_linear" x1="53.076" y1="15.2243" x2="50.315" y2="15.3783" gradientUnits="userSpaceOnUse">
<stop stop-color="#009EBE"/>
<stop offset="1" stop-color="#049C69"/>
</linearGradient>
<linearGradient id="paint19_linear" x1="12.4923" y1="-2.11294" x2="0.142811" y2="-1.392" gradientUnits="userSpaceOnUse">
<stop stop-color="#009EBE"/>
<stop offset="1" stop-color="#049C69"/>
</linearGradient>
<linearGradient id="paint20_linear" x1="61.2994" y1="40.5005" x2="45.9192" y2="41.2534" gradientUnits="userSpaceOnUse">
<stop stop-color="#009EBE"/>
<stop offset="1" stop-color="#049C69"/>
</linearGradient>
</defs>
</svg>
