<svg width="88" height="96" viewBox="0 0 88 96" fill="none" xmlns="http://www.w3.org/2000/svg">
<path d="M67.341 63.928C76.0567 55.2126 70.0108 39.9912 57.4235 39.9912C45 39.9912 38.6777 55.0988 47.5063 63.9278C52.9744 69.3959 61.872 69.3968 67.341 63.928ZM57.4235 42.8037C67.4902 42.8037 72.3172 54.9741 65.3524 61.9392C60.978 66.3136 53.8699 66.314 49.4951 61.939C42.4447 54.8886 47.4817 42.8037 57.4235 42.8037Z" fill="white"/>
<path d="M16.5242 42.8047H32.3745C33.1511 42.8047 33.7807 42.1753 33.7807 41.3984C33.7807 40.6216 33.1511 39.9922 32.3745 39.9922H16.5242C15.7475 39.9922 15.1179 40.6216 15.1179 41.3984C15.1179 42.1753 15.7475 42.8047 16.5242 42.8047Z" fill="white"/>
<path d="M16.5242 54.7578H32.3745C33.1511 54.7578 33.7807 54.1284 33.7807 53.3516C33.7807 52.5747 33.1511 51.9453 32.3745 51.9453H16.5242C15.7475 51.9453 15.1179 52.5747 15.1179 53.3516C15.1179 54.1284 15.7475 54.7578 16.5242 54.7578Z" fill="white"/>
<path d="M16.5242 66.7109H32.3745C33.1511 66.7109 33.7807 66.0815 33.7807 65.3047C33.7807 64.5279 33.1511 63.8984 32.3745 63.8984H16.5242C15.7475 63.8984 15.1179 64.5279 15.1179 65.3047C15.1179 66.0815 15.7475 66.7109 16.5242 66.7109Z" fill="white"/>
<path d="M16.5242 30.8516H56.4617C57.2383 30.8516 57.8679 30.2221 57.8679 29.4453C57.8679 28.6685 57.2383 28.0391 56.4617 28.0391H16.5242C15.7475 28.0391 15.1179 28.6685 15.1179 29.4453C15.1179 30.2221 15.7475 30.8516 16.5242 30.8516Z" fill="white"/>
<path d="M44.9304 75.8477H16.5242C15.7475 75.8477 15.1179 76.4771 15.1179 77.2539C15.1179 78.0307 15.7475 78.6602 16.5242 78.6602H44.9304C45.7071 78.6602 46.3367 78.0307 46.3367 77.2539C46.3367 76.4771 45.7071 75.8477 44.9304 75.8477Z" fill="white"/>
<path d="M85.542 74.3723L82.6253 71.4553C82.0763 70.9061 81.1858 70.9059 80.6367 71.4551C80.0773 72.0143 80.0996 72.9069 80.6367 73.4439L83.5534 76.3609C84.5993 77.4064 84.5957 79.098 83.5534 80.1403C82.5094 81.1845 80.8187 81.1852 79.774 80.1401L69.1924 69.5586C70.5898 68.4992 71.8703 67.2322 72.9717 65.7791L75.9962 68.8035C76.5454 69.3525 77.4358 69.3525 77.9848 68.8035C78.534 68.2541 78.534 67.3639 77.9848 66.8147L74.5343 63.3643C78.4279 56.2339 77.5195 47.3837 72.1356 41.2125V13.2664C72.1356 10.4233 69.8226 8.11013 66.9793 8.11013H56.2108C55.8915 6.74213 54.6645 5.71875 53.2005 5.71875H46.3367V5.409C46.3367 2.42644 43.9105 0 40.9279 0H32.058C29.0757 0 26.6492 2.42644 26.6492 5.409V5.71875H19.7854C18.3214 5.71875 17.0946 6.74213 16.7751 8.11013H6.00659C3.16334 8.11013 0.850342 10.4233 0.850342 13.2664V90.8438C0.850342 93.6868 3.16334 96 6.00659 96H16.3671C17.1437 96 17.7733 95.3706 17.7733 94.5938C17.7733 93.8169 17.1437 93.1875 16.3671 93.1875H6.00659C4.71415 93.1875 3.66284 92.1362 3.66284 90.8438V13.2664C3.66284 11.9739 4.71415 10.9226 6.00659 10.9226H16.6917V13.7351H8.81928C7.52684 13.7351 6.47553 14.7864 6.47553 16.0789V88.0312C6.47553 89.3237 7.52684 90.375 8.81928 90.375H64.167C65.4595 90.375 66.5108 89.3237 66.5108 88.0312V71.2656C66.6 71.2187 66.6887 71.1699 66.7774 71.1214L69.3233 73.6673V90.8438C69.3233 92.1362 68.272 93.1875 66.9795 93.1875H22.9296C22.153 93.1875 21.5233 93.8169 21.5233 94.5938C21.5233 95.3706 22.153 96 22.9296 96H66.9793C69.8226 96 72.1356 93.6868 72.1356 90.8438V76.4798L77.785 82.1289C79.9281 84.2724 83.3982 84.2734 85.542 82.1291C87.6855 79.9858 87.6861 76.5159 85.542 74.3723ZM57.4585 37.3324C72.5633 37.3637 79.4438 55.5864 69.225 65.8084L69.2248 65.8086C69.2241 65.8093 69.2232 65.8103 69.2224 65.811C68.2347 66.7988 67.0373 67.7265 65.7645 68.4622C55.3733 74.4585 45.4223 66.2162 48.6606 68.2082C34.213 59.3214 40.8505 37.3258 57.4585 37.3324ZM69.3231 13.2664V38.5601C68.4338 37.8724 67.4931 37.2671 66.5106 36.7485V16.0789C66.5106 14.7864 65.4593 13.7351 64.1668 13.7351H56.2943V10.9226H66.9793C68.2718 10.9226 69.3231 11.9739 69.3231 13.2664ZM19.5042 8.8125C19.5042 8.65744 19.6303 8.53125 19.7854 8.53125H28.0555C28.8321 8.53125 29.4617 7.90181 29.4617 7.125V5.409C29.4617 3.97725 30.6265 2.8125 32.058 2.8125H40.9279C42.3595 2.8125 43.5242 3.97725 43.5242 5.409V7.125C43.5242 7.90181 44.1538 8.53125 44.9305 8.53125H53.2005C53.3556 8.53125 53.4818 8.65744 53.4818 8.8125V19.9697C53.4818 20.1247 53.3556 20.2509 53.2005 20.2509H19.7854C19.6303 20.2509 19.5042 20.1247 19.5042 19.9697C19.5042 17.9413 19.5042 11.2793 19.5042 8.8125ZM9.28803 87.5625V16.5476H16.6917V19.9697C16.6917 21.6757 18.0797 23.0634 19.7854 23.0634H53.2005C54.9062 23.0634 56.2943 21.6759 56.2943 19.9697V16.5476H63.6981V35.5391C61.6774 34.8548 59.5506 34.5114 57.4236 34.5114C46.6497 34.5114 37.924 43.2324 37.924 54.0109C37.924 64.7893 37.924 54.0109 37.924 54.0109C37.924 67.2465 50.9462 76.7996 63.6981 72.4702V87.5625H9.28803Z" fill="white"/>
</svg>
