<svg width="62" height="62" viewBox="0 0 62 62" fill="none" xmlns="http://www.w3.org/2000/svg">
<g clip-path="url(#clip0)">
<path d="M45.2082 62C35.9495 62 28.4165 54.467 28.4165 45.2083C28.4165 35.9496 35.9495 28.4166 45.2082 28.4166C54.4669 28.4166 61.9999 35.9496 61.9999 45.2083C61.9999 54.467 54.4669 62 45.2082 62ZM45.2082 32.2916C38.0859 32.2916 32.2915 38.0861 32.2915 45.2083C32.2915 52.3306 38.0859 58.125 45.2082 58.125C52.3304 58.125 58.1249 52.3306 58.1249 45.2083C58.1249 38.0861 52.3304 32.2916 45.2082 32.2916Z" fill="white"/>
<path d="M42.625 51.6666C42.1135 51.6666 41.6175 51.4625 41.2558 51.0983L36.0892 45.9316C35.3323 45.1747 35.3323 43.9476 36.0892 43.1907C36.8461 42.4338 38.0732 42.4338 38.8301 43.1907L42.5346 46.8926L50.2123 38.1196C50.9201 37.311 52.142 37.2335 52.948 37.9362C53.754 38.6415 53.8341 39.8659 53.1289 40.6694L44.0872 51.0027C43.7307 51.4083 43.2243 51.6485 42.6896 51.6666C42.6689 51.6666 42.6457 51.6666 42.625 51.6666Z" fill="white"/>
<path d="M21.9583 54.2509C21.8343 54.2509 21.7103 54.2406 21.5889 54.2148C21.3719 54.1734 0 49.7585 0 25.6534V9.68843C0 8.8876 0.490833 8.17201 1.23742 7.88268L21.2583 0.132681C21.7078 -0.0404022 22.2063 -0.0404022 22.6558 0.132681L42.6767 7.88268C43.4258 8.17201 43.9167 8.8876 43.9167 9.68843V21.3134C43.9167 22.3829 43.0487 23.2509 41.9792 23.2509C40.9097 23.2509 40.0417 22.3829 40.0417 21.3134V11.0163L21.9583 4.01801L3.875 11.0163V25.6534C3.875 45.2713 19.4008 49.7301 21.9893 50.3372H21.9945C23.0433 50.115 24.0638 50.8073 24.273 51.8588C24.4823 52.9076 23.8003 53.928 22.7514 54.1373L22.2709 54.2251C22.1676 54.2432 22.0643 54.2509 21.9583 54.2509Z" fill="white"/>
</g>
<defs>
<clipPath id="clip0">
<rect width="62" height="62" fill="white"/>
</clipPath>
</defs>
</svg>
