<svg width="23" height="23" viewBox="0 0 23 23" fill="none" xmlns="http://www.w3.org/2000/svg">
<g clip-path="url(#clip0)">
<path d="M2.77464 21.587C2.33783 21.587 1.91418 21.5168 1.5145 21.3785L0.60434 21.0636L1.3037 20.4014C2.22936 19.5248 2.46297 18.5138 2.47817 17.7565C0.878295 15.9827 1.24268e-08 13.7697 1.24268e-08 11.5C-0.000292363 5.93815 5.15867 1.41306 11.4997 1.41306C17.8407 1.41306 23 5.93815 23 11.5C23 17.0616 17.8407 21.5864 11.4997 21.5864C9.61184 21.5864 7.74941 21.1773 6.08959 20.4002C5.4642 20.8432 4.20085 21.587 2.77464 21.587ZM5.95247 19.0272L6.28812 19.1971C7.86607 19.995 9.66827 20.4172 11.4994 20.4172C17.1958 20.4172 21.8302 16.4169 21.8302 11.5003C21.8302 6.58313 17.1958 2.58285 11.4994 2.58285C5.80307 2.58285 1.16892 6.58313 1.16892 11.5C1.16892 13.5434 1.99166 15.5412 3.48599 17.125L3.63803 17.2861L3.64504 17.5074C3.67077 18.3024 3.52809 19.3804 2.82142 20.4169C4.1757 20.3952 5.42064 19.4526 5.65863 19.2623L5.95247 19.0272Z" fill="white"/>
<path d="M5.92182 14.2588C5.4929 14.2588 5.14468 14.2252 4.8757 14.1577C4.6073 14.0907 4.42164 14.0217 4.3196 13.9516C4.29387 13.9258 4.28422 13.8671 4.29036 13.7741C4.2965 13.682 4.31112 13.5855 4.33363 13.4867C4.35585 13.3879 4.3848 13.299 4.41989 13.2232C4.45497 13.1466 4.4883 13.111 4.52075 13.1177C4.68712 13.1753 4.8678 13.2314 5.06282 13.2855C5.25783 13.3396 5.50577 13.3668 5.80633 13.3668C6.11362 13.3668 6.37383 13.3227 6.58873 13.2326C6.80274 13.1428 6.91034 12.9829 6.91034 12.7528C6.91034 12.5537 6.83958 12.3926 6.69895 12.2681C6.55832 12.1435 6.30541 12.0105 5.94082 11.8704C5.7423 11.7929 5.55547 11.7085 5.37946 11.6155C5.20316 11.5231 5.04849 11.414 4.914 11.2892C4.77951 11.1646 4.67425 11.0158 4.59736 10.8433C4.52046 10.6708 4.48187 10.4659 4.48187 10.229C4.48187 10.0372 4.519 9.85479 4.59239 9.682C4.66577 9.50921 4.77951 9.36039 4.933 9.23584C5.0865 9.11128 5.28327 9.01188 5.52331 8.93849C5.76335 8.86481 6.04959 8.82797 6.38231 8.82797C6.59954 8.82797 6.78052 8.83294 6.92437 8.8423C7.06822 8.85195 7.18634 8.86481 7.27961 8.88089C7.372 8.89697 7.44743 8.91452 7.50503 8.93381C7.56263 8.95311 7.61701 8.9689 7.66818 8.98176C7.71291 9.00077 7.73542 9.0569 7.73542 9.14959C7.73542 9.24227 7.72227 9.34138 7.69683 9.44722C7.67139 9.55248 7.63601 9.64545 7.59157 9.72527C7.54655 9.80538 7.50181 9.83901 7.45708 9.82614C7.34832 9.79427 7.1995 9.75919 7.01092 9.72089C6.82204 9.68229 6.63843 9.66329 6.4592 9.66329C6.09432 9.66329 5.84346 9.71475 5.70604 9.81679C5.56834 9.91912 5.49963 10.0565 5.49963 10.2293C5.49963 10.415 5.57652 10.5638 5.73002 10.6755C5.88352 10.7872 6.12356 10.9009 6.44956 11.0161C6.96764 11.2208 7.35007 11.4558 7.59625 11.7213C7.84243 11.9868 7.96581 12.321 7.96581 12.7242C7.96581 13.025 7.90822 13.2747 7.79331 13.4732C7.67782 13.6715 7.52433 13.8285 7.33253 13.9428C7.14073 14.0586 6.92145 14.1398 6.67527 14.1878C6.4288 14.2349 6.17765 14.2588 5.92182 14.2588Z" fill="white"/>
<path d="M12.8405 14.2109C12.7063 14.2109 12.6182 14.1887 12.577 14.1437C12.5349 14.0992 12.5147 14.013 12.5147 13.8843V10.5258C12.2589 10.9416 12.0616 11.2629 11.9239 11.4901C11.7859 11.7175 11.6862 11.8839 11.6218 11.9894C11.5578 12.0944 11.5192 12.1573 11.5061 12.1763C11.4935 12.1956 11.4876 12.2087 11.4876 12.2152C11.4303 12.3111 11.39 12.3733 11.3678 12.4023C11.345 12.4318 11.2985 12.4453 11.2283 12.4453H11.0748C10.9918 12.4453 10.9371 12.4309 10.9117 12.4023C10.8862 12.3733 10.8476 12.3111 10.7965 12.2152L9.81758 10.5457V13.9428C9.81758 14.0261 9.80326 14.0919 9.77431 14.1399C9.74566 14.1878 9.67052 14.2118 9.54889 14.2118H9.14629C9.05653 14.2118 8.97847 14.1975 8.91093 14.1685C8.84397 14.1399 8.81006 14.0457 8.81006 13.8852V9.27883C8.81006 9.15077 8.83403 9.06598 8.88198 9.02446C8.92993 8.98295 8.99864 8.96219 9.0884 8.96219H9.56819C9.63836 8.96219 9.69771 8.97154 9.74566 8.99084C9.79361 9.01014 9.84302 9.05809 9.89448 9.13469L11.1704 11.169L12.4466 9.15399C12.4852 9.08352 12.5311 9.03411 12.5864 9.00517C12.6411 8.97622 12.6931 8.96219 12.7446 8.96219H13.2726C13.3942 8.96219 13.4641 8.98763 13.484 9.03879C13.5033 9.09025 13.5126 9.17328 13.5126 9.28848V13.9323C13.5126 14.0282 13.5001 14.0989 13.4743 14.144C13.4486 14.189 13.3749 14.2109 13.2539 14.2109H12.8405Z" fill="white"/>
<path d="M16.0366 14.2588C15.6074 14.2588 15.2594 14.2252 14.9904 14.1577C14.722 14.0907 14.5361 14.0217 14.4343 13.9516C14.4086 13.9258 14.399 13.8671 14.4051 13.7741C14.4112 13.682 14.4253 13.5855 14.4481 13.4867C14.4703 13.3879 14.499 13.299 14.5343 13.2232C14.5691 13.1464 14.6025 13.111 14.6352 13.1177C14.8016 13.1753 14.9825 13.2314 15.1773 13.2855C15.372 13.3399 15.6199 13.3668 15.9208 13.3668C16.2281 13.3668 16.488 13.3227 16.7032 13.2326C16.9169 13.1428 17.0251 12.9829 17.0251 12.7528C17.0251 12.5537 16.9543 12.3926 16.8134 12.2681C16.6725 12.1435 16.4199 12.0105 16.055 11.8704C15.8565 11.7929 15.6699 11.7085 15.4936 11.6155C15.3173 11.5231 15.1627 11.414 15.0279 11.2892C14.8937 11.1646 14.7884 11.0158 14.7115 10.8433C14.6343 10.6705 14.596 10.4659 14.596 10.229C14.596 10.0372 14.6332 9.85479 14.7063 9.682C14.7799 9.50921 14.8937 9.36039 15.0472 9.23584C15.2007 9.11128 15.3971 9.01188 15.6372 8.93849C15.8775 8.86481 16.164 8.82797 16.4962 8.82797C16.7137 8.82797 16.8947 8.83294 17.0382 8.8423C17.1821 8.85195 17.3002 8.86481 17.3938 8.88089C17.4859 8.89697 17.5613 8.91452 17.6192 8.93381C17.6765 8.95282 17.7312 8.9689 17.7826 8.98176C17.8271 9.00077 17.8496 9.0569 17.8496 9.14959C17.8496 9.24227 17.8364 9.34138 17.8107 9.44722C17.7855 9.55248 17.7502 9.64545 17.706 9.72527C17.661 9.80538 17.616 9.83901 17.5712 9.82614C17.4628 9.79427 17.3134 9.75919 17.1254 9.72089C16.9365 9.68229 16.7526 9.66329 16.5737 9.66329C16.2088 9.66329 15.9576 9.71475 15.8205 9.81679C15.6828 9.91912 15.6138 10.0565 15.6138 10.2293C15.6138 10.415 15.691 10.5638 15.8445 10.6755C15.9977 10.7872 16.238 10.9009 16.564 11.0161C17.0818 11.2208 17.4645 11.4558 17.7107 11.7213C17.9569 11.9868 18.0803 12.321 18.0803 12.7242C18.0803 13.025 18.0227 13.2747 17.9078 13.4732C17.7923 13.6715 17.6388 13.8285 17.447 13.9428C17.2552 14.0586 17.0359 14.1398 16.7897 14.1878C16.5427 14.2349 16.2924 14.2588 16.0366 14.2588Z" fill="white"/>
</g>
<defs>
<clipPath id="clip0">
<rect width="23" height="23" fill="white"/>
</clipPath>
</defs>
</svg>
