<svg width="40" height="40" viewBox="0 0 40 40" fill="none" xmlns="http://www.w3.org/2000/svg">
<circle opacity="0.2" cx="20" cy="20" r="20" fill="url(#paint0_linear)"/>
<path d="M12 30C12 27.8783 12.8429 25.8434 14.3431 24.3431C15.8434 22.8429 17.8783 22 20 22C22.1217 22 24.1566 22.8429 25.6569 24.3431C27.1571 25.8434 28 27.8783 28 30H12ZM20 21C16.685 21 14 18.315 14 15C14 11.685 16.685 9 20 9C23.315 9 26 11.685 26 15C26 18.315 23.315 21 20 21Z" fill="url(#paint1_linear)"/>
<defs>
<linearGradient id="paint0_linear" x1="40.963" y1="-7.40742" x2="0.450937" y2="-5.14703" gradientUnits="userSpaceOnUse">
<stop stop-color="#009EBE"/>
<stop offset="1" stop-color="#049C69"/>
</linearGradient>
<linearGradient id="paint1_linear" x1="28.3852" y1="5.1111" x2="12.1592" y2="5.80088" gradientUnits="userSpaceOnUse">
<stop stop-color="#009EBE"/>
<stop offset="1" stop-color="#049C69"/>
</linearGradient>
</defs>
</svg>
